<svg width="366" height="366" viewBox="0 0 366 366" fill="none" xmlns="http://www.w3.org/2000/svg">
<path opacity="0.991" fill-rule="evenodd" clip-rule="evenodd" d="M245.965 35.3795C261.196 35.0431 275.457 38.5476 288.75 45.8929C310.418 59.3145 321.451 78.8785 321.844 104.585C321.912 124.873 314.536 141.999 299.72 155.963C286.426 167.245 271.005 173.34 253.461 174.247C246.843 174.602 240.26 174.267 233.715 173.242C233.532 173.181 233.349 173.12 233.166 173.059C232.106 170.444 230.277 168.585 227.681 167.482C226.408 167.149 225.128 166.844 223.841 166.568C220 166.537 216.16 166.446 212.322 166.294C213.756 162.454 214.333 158.492 214.059 154.409C213.567 152.079 213.019 149.763 212.414 147.461C209.585 141.219 205.043 136.678 198.792 133.839C192.287 131.328 185.582 129.805 178.679 129.268C174.774 118.585 173.524 107.584 174.931 96.2655C178.521 70.8717 191.899 52.8008 215.065 42.0532C224.969 37.8969 235.269 35.6724 245.965 35.3795ZM245.782 71.0335C262.002 70.8062 272.515 78.4247 277.322 93.8886C279.951 105.005 278.917 115.061 274.214 124.057C268.25 133.64 259.565 138.516 248.159 138.685C234.504 138.188 225.088 131.667 219.91 119.121C216.418 108.911 216.663 98.794 220.641 88.7691C225.668 78.1054 234.047 72.1936 245.782 71.0335Z" fill="#2A2322"/>
<path opacity="0.99" fill-rule="evenodd" clip-rule="evenodd" d="M61.8441 38.3054C81.5301 38.2749 101.216 38.3054 120.902 38.3968C128.618 38.6365 136.115 40.0384 143.391 42.6022C160.738 49.4697 167.716 62.1162 164.326 80.5416C161.307 90.8749 154.817 98.0971 144.854 102.208C151.413 104.282 157.112 107.725 161.95 112.539C166.246 117.315 168.958 122.679 170.086 128.629C170.066 128.801 170.005 128.953 169.903 129.086C163.714 129.531 157.68 130.75 151.802 132.743C139.313 137.999 133.553 147.415 134.523 160.992C135.068 164.148 135.952 167.195 137.175 170.134C132.042 171.118 126.861 171.697 121.633 171.871C95.6695 171.936 69.7061 172.027 43.7429 172.145C43.6376 127.593 43.5765 83.0405 43.5601 38.4882C49.686 38.5489 55.7808 38.4879 61.8441 38.3054ZM84.3336 68.657C92.8664 68.6265 101.399 68.657 109.931 68.7484C113.215 68.7588 116.323 69.4902 119.256 70.9425C122.549 73.1093 124.134 76.1871 124.01 80.176C123.848 85.5924 121.166 89.0359 115.965 90.5065C114.646 90.8685 113.305 91.1122 111.943 91.2378C106.458 91.3293 100.972 91.3598 95.4869 91.3293C95.4869 100.106 95.4869 108.882 95.4869 117.658C101.887 117.628 108.286 117.658 114.685 117.75C117.981 117.827 121.089 118.619 124.01 120.127C127.327 122.249 128.972 125.296 128.947 129.269C128.715 135.947 125.302 139.847 118.708 140.971C117.859 141.122 117.005 141.244 116.148 141.336C105.604 141.428 95.0605 141.458 84.5164 141.428C84.3773 117.171 84.3164 92.9141 84.3336 68.657Z" fill="#2A2322"/>
<path opacity="0.992" fill-rule="evenodd" clip-rule="evenodd" d="M168.623 137.953C175.81 137.526 182.88 138.227 189.833 140.056C194.537 141.143 198.531 143.428 201.809 146.913C204.672 150.563 205.769 154.707 205.1 159.346C204.709 162.227 203.672 164.848 201.992 167.208C198.796 171.167 195.108 174.58 190.93 177.447C193.329 179.633 195.706 181.857 198.061 184.121C198.269 184.258 198.452 184.227 198.609 184.029C198.761 183.724 198.915 183.42 199.066 183.115C199.531 181.216 200.019 179.327 200.529 177.447C201.03 176.632 201.73 176.053 202.632 175.71C209.753 175.41 216.884 175.349 224.024 175.527C224.351 175.671 224.626 175.884 224.847 176.167C225.172 176.86 225.324 177.592 225.304 178.361C224.615 186.96 221.323 194.365 215.431 200.576C219.859 205.005 224.278 209.424 228.686 213.832C229.623 214.918 229.926 216.138 229.601 217.489C229.449 217.641 229.295 217.794 229.144 217.946C227.699 218.178 226.236 218.301 224.755 218.312C218.109 218.467 211.467 218.407 204.826 218.129C201.279 217.943 198.048 216.846 195.135 214.838C194.281 214.715 193.429 214.715 192.575 214.838C187.288 217.412 181.742 219.18 175.937 220.14C169.782 220.528 163.688 220.102 157.653 218.86C151.95 217.593 146.83 215.154 142.294 211.547C135.578 205.272 133.841 197.806 137.083 189.149C139.409 184.263 142.975 180.575 147.779 178.087C149.729 177.031 151.74 176.117 153.813 175.344C149.425 172.54 146.225 168.731 144.214 163.917C141.193 153.354 144.636 145.766 154.545 141.153C159.098 139.359 163.791 138.293 168.623 137.953ZM172.097 151.301C175.835 150.763 178.974 151.86 181.514 154.592C182.312 155.918 182.495 157.319 182.062 158.797C181.352 160.855 180.164 162.592 178.497 164.008C177.4 164.861 176.303 165.715 175.206 166.568C174.84 166.69 174.474 166.69 174.108 166.568C171.27 165.314 168.984 163.394 167.252 160.808C165.465 157.622 166.044 154.91 168.989 152.672C170 152.104 171.037 151.647 172.097 151.301ZM167.709 186.589C168.386 186.867 168.996 187.264 169.537 187.777C174.402 192.155 179.156 196.664 183.799 201.308C180.431 203.334 176.775 204.462 172.829 204.69C168.977 204.606 165.717 203.206 163.047 200.485C161.427 197.852 161.245 195.109 162.498 192.257C163.739 189.884 165.476 187.995 167.709 186.589Z" fill="#2A2322"/>
<path opacity="0.991" fill-rule="evenodd" clip-rule="evenodd" d="M248.342 190.977C263.267 190.252 277.408 193.206 290.761 199.845C312.241 211.746 324.155 229.939 326.506 254.423C327.951 274.042 322.343 291.289 309.685 306.167C298.535 318.28 284.793 325.746 268.454 328.565C251.07 331.632 234.311 329.62 218.173 322.532C194.738 310.881 181.849 291.957 179.502 265.759C178.82 254.747 180.405 244.082 184.256 233.762C185.329 231.19 186.547 228.692 187.913 226.266C189.761 225.518 191.621 224.787 193.49 224.072C196.133 225.205 198.876 226.028 201.717 226.54C203.292 226.812 204.877 226.995 206.471 227.089C213.845 227.211 221.221 227.211 228.595 227.089C230.058 226.723 231.521 226.357 232.983 225.992C233.775 225.443 234.568 224.894 235.36 224.346C237.523 221.947 238.591 219.113 238.56 215.844C238.194 214.381 237.829 212.918 237.463 211.456C236.379 209.593 235.161 207.824 233.806 206.153C231.661 203.977 229.496 201.844 227.315 199.754C228.438 197.929 229.443 196.04 230.332 194.086C233.274 193.108 236.291 192.405 239.383 191.983C242.387 191.553 245.373 191.217 248.342 190.977ZM249.439 226.631C263.931 225.723 274.324 231.756 280.613 244.733C284.078 253.771 284.564 262.973 282.076 272.342C278.032 285.164 269.347 292.387 256.021 294.008C241.937 294.908 231.789 289.088 225.578 276.547C222.208 268.246 221.477 259.715 223.384 250.949C224.28 247.367 225.5 244.076 227.041 241.076C232.19 232.694 239.655 227.88 249.439 226.631Z" fill="#2A2322"/>
<path opacity="0.99" fill-rule="evenodd" clip-rule="evenodd" d="M111.76 191.16C114.747 191.129 117.733 191.16 120.719 191.252C122.928 191.328 125.122 191.54 127.301 191.891C125.48 202.672 128.71 211.6 136.992 218.678C142.568 223.172 148.907 226.097 156.007 227.454C154.294 230.851 152.557 234.234 150.796 237.602C140.482 230.72 129.116 227.125 116.696 226.814C107.7 226.533 99.7156 229.184 92.7443 234.768C88.1138 239.03 85.1884 243.754 83.9679 248.938C81.7444 256.718 81.6529 264.518 83.6936 272.341C87.624 284.864 96.065 292.269 109.017 294.557C113.763 295.092 118.517 295.155 123.279 294.739C127.038 294.363 130.634 293.388 134.066 291.814C134.248 287.958 134.309 284.087 134.249 280.204C130.836 280.204 127.423 280.204 124.01 280.204C124.01 271.122 124.01 262.042 124.01 252.96C140.222 252.96 156.434 252.96 172.646 252.96C172.676 272.647 172.646 292.331 172.554 312.018C149.67 327.1 124.652 332.617 97.4981 328.565C82.0115 325.683 68.7555 318.704 57.7302 307.63C45.7699 294.43 39.7667 278.86 39.7204 260.914C39.8875 235.909 50.6141 216.59 71.9004 202.953C84.2502 195.819 97.5367 191.888 111.76 191.16Z" fill="#2A2322"/>
</svg>
